<?xml version="1.0" encoding="UTF-8" standalone="no"?>
<svg
   xmlns:dc="http://purl.org/dc/elements/1.1/"
   xmlns:cc="http://creativecommons.org/ns#"
   xmlns:rdf="http://www.w3.org/1999/02/22-rdf-syntax-ns#"
   xmlns:svg="http://www.w3.org/2000/svg"
   xmlns="http://www.w3.org/2000/svg"
   xmlns:sodipodi="http://sodipodi.sourceforge.net/DTD/sodipodi-0.dtd"
   xmlns:inkscape="http://www.inkscape.org/namespaces/inkscape"
   xml:space="preserve"
   version="1.1"
   style="clip-rule:evenodd;fill-rule:evenodd;image-rendering:optimizeQuality;shape-rendering:geometricPrecision;text-rendering:geometricPrecision"
   viewBox="0 0 16747.75 17415.689"
   x="0px"
   y="0px"
   id="svg7753"
   sodipodi:docname="clamp.svg"
   width="16747.75"
   height="17415.689"
   inkscape:version="0.92.4 (unknown)"><metadata
     id="metadata7757"><rdf:RDF><cc:Work
         rdf:about=""><dc:format>image/svg+xml</dc:format><dc:type
           rdf:resource="http://purl.org/dc/dcmitype/StillImage" /><dc:title></dc:title></cc:Work></rdf:RDF></metadata><sodipodi:namedview
     pagecolor="#ffffff"
     bordercolor="#666666"
     borderopacity="1"
     objecttolerance="10"
     gridtolerance="10"
     guidetolerance="10"
     inkscape:pageopacity="0"
     inkscape:pageshadow="2"
     inkscape:window-width="1600"
     inkscape:window-height="836"
     id="namedview7755"
     showgrid="false"
     fit-margin-top="0"
     fit-margin-left="0"
     fit-margin-right="0"
     fit-margin-bottom="0"
     inkscape:zoom="0.030840751"
     inkscape:cx="8819.43"
     inkscape:cy="6635.715"
     inkscape:window-x="0"
     inkscape:window-y="27"
     inkscape:window-maximized="1"
     inkscape:current-layer="svg7753" /><defs
     id="defs7743"><style
       type="text/css"
       id="style7741">
   
    .fil0 {fill:black}
   
  </style></defs><g
     id="g7747"
     transform="translate(-0.07,-244.39982)"><path
       class="fil0"
       d="m 13386,9168 c 7,-7 14,-14 21,-20 568,-531 1466,-1346 2531,-1718 6,-11 8,-21 6,-29 -5,-37 -63,-99 -167,-211 l -628,-586 -3,-3 c -26,-27 -61,-46 -99,-59 -41,-14 -88,-20 -135,-17 -634,112 -1097,357 -1432,633 -610,503 -793,1101 -805,1197 -9,74 134,418 291,694 55,97 112,184 164,245 25,30 45,51 55,60 30,-28 83,-78 140,-131 l 59,-55 z M 3276,2779 4688,2081 c 82,-38 206,-296 -57,-167 l -1151,563 c -66,30 -185,93 -249,129 -115,64 -164,276 44,173 z m -294,635 1387,-746 c 81,-41 196,-302 -63,-165 l -1131,602 c -65,32 -181,99 -244,137 -113,68 -154,281 50,172 z m -310,600 1387,-746 c 81,-41 196,-302 -63,-165 l -1131,602 c -65,32 -181,99 -244,137 -113,68 -154,281 50,172 z m -271,625 1387,-746 c 81,-41 196,-302 -63,-165 l -1131,602 c -65,32 -181,99 -244,137 -113,68 -154,281 50,172 z m 4861,10663 972,-621 c 73,-47 126,-72 174,-114 136,-119 -57,-161 -120,-123 -43,26 -101,53 -187,108 l -963,602 c -295,235 -91,285 123,148 z M 2288,5368 3719,4598 c 83,-42 202,-312 -64,-170 l -1166,621 c -67,33 -187,103 -252,142 -116,70 -159,290 52,177 z m 4588,9393 936,-604 c 345,-222 129,-368 -139,-183 l -920,598 c -567,366 -252,432 124,189 z M 2131,6150 c 113,-16 214,-96 341,-155 l 1227,-700 c 45,-39 116,-179 95,-251 -82,-7 -805,407 -910,467 -150,85 -295,158 -445,245 -168,97 -331,142 -307,394 z m 4015,8220 c 34,-19 68,-35 93,-49 262,-154 795,-523 1042,-698 370,-262 100,-404 -196,-212 l -1105,720 c -306,199 -26,347 167,239 z M 2438,6847 3777,6085 c 176,-124 113,-344 -122,-226 -428,214 -914,503 -1318,767 -230,150 -224,406 101,221 z m 3091,6962 c 166,-105 428,-263 524,-327 63,-39 443,-287 657,-436 425,-297 66,-394 -187,-237 l -1180,774 c -234,145 4,341 186,227 z M 2579,7670 c 306,-192 667,-376 1011,-592 l 103,-59 c 324,-157 378,-537 -68,-295 -220,120 -476,282 -620,355 l -158,84 c -98,63 -230,151 -356,216 -349,181 -272,524 87,290 z m 9,590 c -188,136 -134,419 172,235 l 1166,-701 c 224,-145 362,-548 -121,-260 l -1217,725 z m 294,735 c -299,214 -115,463 90,355 331,-225 864,-495 1258,-771 181,-127 127,-451 -163,-279 l -821,488 c -65,38 -91,57 -167,98 -86,46 -95,87 -197,108 z m 2276,4085 1104,-704 c 226,-162 -19,-403 -248,-259 l -1085,712 c -395,225 -161,530 229,251 z M 3771,9452 c -167,98 -522,281 -690,406 -184,133 -10,463 187,336 367,-237 744,-464 1115,-694 62,-39 150,-90 218,-141 169,-127 4,-416 -211,-283 z m -393,1408 c 14,110 103,192 221,167 l 1226,-763 c 291,-173 229,-573 -174,-346 -313,176 -905,553 -993,614 -154,106 -315,136 -280,328 z m 2429,830 c 55,-70 104,-136 24,-243 -111,-148 -209,-125 -331,-45 l -592,390 c -190,125 -404,241 -580,368 -290,209 30,447 236,311 135,-89 281,-172 412,-258 l 832,-523 z m -2032,-52 c 133,270 325,108 466,32 280,-150 547,-344 815,-508 90,-55 133,-88 270,-169 59,-48 118,-103 79,-231 -22,-71 -106,-145 -192,-146 -126,9 -139,40 -229,100 l -927,595 c -144,100 -303,113 -281,328 z M 8543,2900 c -59,82 -5,200 115,180 23,35 47,71 73,109 19,28 39,58 57,86 -188,165 -300,383 -372,581 l -602,-497 -6,-4 c -84,-59 -165,-122 -264,-199 -29,-22 -59,-46 -91,-71 -47,-36 -78,-58 -103,-75 v 0 c -31,-21 -47,-33 -49,-37 -5,-9 -8,-42 -14,-112 -2,-20 -4,-45 -10,-106 l -2,-19 c -17,-176 -18,-183 -158,-269 -55,-33 -101,-64 -150,-96 l -33,-22 c -83,-54 -159,-95 -237,-138 -54,-29 -108,-59 -167,-94 -88,-53 -330,-169 -554,-252 l -8,-3 v 0 c -372,-149 -813,-277 -1328,-282 -43,0 -87,0 -132,1 617,-238 1310,-501 1854,-703 375,-140 694,-240 984,-296 284,-55 540,-65 794,-27 55,8 110,19 163,30 56,12 112,26 168,40 74,19 151,45 227,71 36,12 71,24 106,35 -88,115 -156,262 -189,425 v 0 l -1272,555 c -67,27 -223,94 -289,128 -117,60 -90,279 122,185 l 1416,-627 c 1,102 17,207 49,311 l -746,334 c -67,27 -188,87 -253,120 -117,60 -94,273 117,177 l 876,-397 c -156,197 -234,344 -248,483 -69,30 -173,81 -232,111 -117,60 -97,268 115,172 l 145,-66 c 26,78 70,161 127,255 z M 6518,1763 7953,1113 c 104,-40 138,-253 -129,-134 l -1091,488 c -67,27 -188,87 -253,120 -117,60 -173,270 38,175 z M 5857,1570 7292,920 c 101,-38 177,-271 -90,-151 l -1130,506 c -67,27 -188,87 -253,120 -117,60 -173,270 38,175 z m 10030,8098 -972,-1490 c -426,281 -803,601 -1111,881 39,15 76,39 109,72 18,18 35,38 50,62 l 678,1039 c 86,132 236,154 403,116 25,-6 50,-13 75,-21 -2,-15 -6,-29 -10,-42 -10,-28 -25,-53 -41,-78 l -306,-472 c -69,-107 -35,-224 48,-319 29,-33 64,-64 103,-90 38,-26 80,-47 122,-61 121,-42 246,-29 320,76 l 297,424 c 61,-11 144,-46 237,-96 z m -801,-1599 975,1495 c 129,-84 257,-184 351,-278 80,-80 133,-147 132,-181 l -729,-1142 c -41,-65 -61,-135 -60,-202 0,-15 2,-29 4,-44 -234,99 -459,219 -673,351 z m -3326,6428 -6,16 c -49,160 -106,307 -170,440 -155,371 -367,799 -660,1193 -105,141 -193,262 -320,391 469,-275 1082,-645 1660,-1012 528,-335 1000,-651 1235,-845 440,-365 726,-945 906,-1591 239,-856 290,-1824 264,-2569 -76,-36 -144,-94 -199,-178 l -678,-1039 c -7,-11 -14,-20 -22,-28 -25,-25 -55,-35 -87,-35 -37,0 -76,14 -112,37 -9,6 -18,13 -27,20 -27,26 -54,51 -80,75 -43,41 -84,79 -158,147 -27,25 -58,39 -92,43 -79,8 -160,-44 -237,-135 -61,-70 -125,-168 -186,-276 -52,-92 -103,-193 -148,-293 l -262,130 c -86,43 -64,41 -145,-14 l -547,-368 c -38,-23 -63,-46 -88,-95 l -529,-891 c -36,13 -73,24 -109,35 524,904 871,2279 997,3636 111,1188 53,2366 -202,3206 h 1 z m -2731,2679 c 777,-146 1320,-561 1732,-1151 247,-332 435,-691 579,-1018 -250,-34 -556,-155 -864,-314 C 7942,13384 5945,10300 5211,7559 4736,5783 4631,3756 5310,2136 c 38,-92 78,-176 118,-242 -240,-65 -503,-108 -789,-111 -599,-6 -1409,226 -1937,592 -585,406 -927,895 -1179,1555 -482,1262 -534,2706 -278,4168 286,1633 958,3286 1846,4732 753,1225 2160,2951 3746,3821 709,389 1455,605 2191,524 z m 2394,-2364 c 56,-137 103,-265 144,-379 246,-811 301,-1960 192,-3124 -127,-1357 -475,-2728 -1001,-3604 l -12,2 c -107,22 -167,31 -232,3 -64,-28 -103,-79 -165,-179 L 8741,5048 c -59,-77 -106,-152 -153,-228 -44,-70 -87,-140 -140,-210 -171,-226 -162,-272 -134,-417 7,-36 16,-81 21,-143 l -648,-535 c -93,-66 -171,-127 -266,-200 -29,-22 -59,-46 -91,-71 -36,-28 -69,-51 -95,-69 v 0 c -57,-40 -87,-61 -112,-107 -25,-47 -29,-94 -38,-192 -3,-38 -7,-82 -9,-102 l -2,-19 c -8,-79 -8,-82 -61,-114 -53,-32 -102,-65 -155,-99 l -33,-22 c -78,-50 -150,-90 -224,-130 -56,-31 -114,-62 -175,-98 -81,-49 -309,-157 -521,-236 l -13,-5 v 0 l -3,-1 c -106,-39 -204,-69 -271,-78 -35,51 -77,140 -120,242 -661,1577 -554,3562 -89,5296 721,2692 2671,5716 5160,7002 316,163 624,284 853,300 z m 234,-7529 458,703 c 62,95 136,193 214,243 51,32 109,40 171,-1 72,-234 305,-773 853,-1225 355,-293 842,-552 1504,-673 107,-89 177,-179 169,-317 -10,-170 -122,-417 -396,-811 l -2,-3 -2731,-4212 c -81,-126 -166,-248 -284,-325 -116,-75 -272,-112 -507,-76 l -6,1 c -174,16 -289,66 -430,129 v 0 c -13,6 -26,11 -39,17 v 0 0 c -17,7 -25,11 -33,15 l -24,11 c -249,112 -525,250 -803,432 -313,204 -630,465 -917,808 -375,448 -285,583 46,1077 17,25 34,51 54,81 145,-82 324,-136 547,-142 l 22,-1 c 122,-4 182,-5 242,26 59,30 87,74 141,159 l 24,38 2000,3092 c 20,31 24,37 29,44 130,199 136,207 16,474 -78,173 -187,317 -318,435 z m 836,1171 c -96,25 -187,0 -272,-53 -109,-69 -201,-189 -276,-304 l -448,-688 c -74,50 -152,95 -233,133 l 482,811 c 25,54 56,80 99,100 l 416,280 c 80,53 55,61 141,18 l 163,-80 c -32,-82 -57,-156 -72,-217 z M 9088,739 c -4,3 -9,6 -13,9 -2,2 -5,5 -8,7 l -39,36 -4,-1 c -103,99 -184,257 -215,440 -25,147 -16,308 43,465 259,-276 535,-495 809,-674 249,-162 494,-291 721,-397 -201,-167 -442,-200 -665,-166 -261,39 -497,166 -630,280 z m -4973,779 c 671,-262 1524,-585 2178,-828 386,-144 715,-248 1016,-306 307,-59 585,-71 862,-28 57,9 116,20 175,33 58,12 117,27 177,43 78,21 160,48 240,75 72,24 143,48 207,65 158,-129 425,-269 716,-313 302,-46 631,9 896,276 160,-72 288,-128 497,-148 290,-44 491,6 645,106 152,99 250,240 344,384 l 2729,4210 v 0 c 297,427 420,707 432,916 9,149 -34,258 -109,352 64,22 121,56 168,103 l 631,588 5,5 c 134,144 208,224 222,323 16,108 -39,191 -164,330 -15,17 -23,38 -23,61 0,28 9,59 28,90 l 732,1147 c 14,22 23,46 27,70 v 0 c 15,103 -64,232 -190,358 -101,101 -236,207 -374,298 -47,113 -157,250 -303,378 -108,95 -236,188 -370,266 -136,79 -281,142 -419,174 -74,17 -146,25 -215,22 22,753 -34,1718 -273,2575 -190,682 -496,1298 -972,1693 -245,203 -724,524 -1255,861 -752,477 -1618,992 -2070,1248 -1172,713 -2414,515 -3564,-115 C 5119,15941 3685,14184 2919,12938 2018,11472 1337,9793 1046,8135 784,6639 838,5159 1334,3860 1601,3162 1970,2639 2588,2210 2993,1929 3683,1687 4115,1519 Z m 6670,5974 6,-1 v 0 c 227,-53 446,-141 628,-275 156,-114 286,-263 371,-451 75,-166 72,-171 0,-280 l -29,-45 -2000,-3092 -25,-40 c -35,-54 -52,-82 -63,-88 -14,-7 -56,-6 -143,-4 l -22,1 c -730,20 -904,687 -988,1004 l -7,26 c -12,66 -9,98 99,241 58,77 104,151 150,225 45,72 90,145 143,214 l 4,6 1612,2489 c 40,63 60,94 73,100 11,5 47,-2 113,-15 l 39,-8 c 14,-3 27,-6 38,-8 z m 4525,2756 c 32,-16 64,-33 96,-52 123,-71 240,-157 338,-243 l 7,-6 c -29,9 -56,15 -81,19 -28,4 -64,2 -99,-12 -29,-12 -57,-32 -79,-64 l -304,-435 c -12,-17 -48,-14 -88,0 -25,9 -51,22 -74,37 -24,16 -45,34 -62,54 -26,30 -42,60 -31,76 l 306,472 c 24,36 46,75 62,121 4,10 7,20 10,31 z"
       id="path7745"
       inkscape:connector-curvature="0"
       style="fill:#000000" /></g><text
     x="-0.07"
     y="17409.6"
     font-size="5px"
     font-weight="bold"
     id="text7749"
     style="font-weight:bold;font-size:5px;font-family:'Helvetica Neue', Helvetica, Arial-Unicode, Arial, Sans-serif;fill:#000000">Created by Oleksandr Panasovskyi</text>
<text
     x="-0.07"
     y="17414.6"
     font-size="5px"
     font-weight="bold"
     id="text7751"
     style="font-weight:bold;font-size:5px;font-family:'Helvetica Neue', Helvetica, Arial-Unicode, Arial, Sans-serif;fill:#000000">from the Noun Project</text>
</svg>